<?xml version="1.0" standalone="no"?>
<!DOCTYPE svg PUBLIC "-//W3C//DTD SVG 20010904//EN"
 "http://www.w3.org/TR/2001/REC-SVG-20010904/DTD/svg10.dtd">
<svg version="1.0" xmlns="http://www.w3.org/2000/svg"
 width="300.000000pt" height="300.000000pt" viewBox="0 0 300.000000 300.000000"
 preserveAspectRatio="xMidYMid meet">
<metadata>
Created by potrace 1.10, written by Peter Selinger 2001-2011
</metadata>
<g transform="translate(0.000000,300.000000) scale(0.100000,-0.100000)"
fill="#000000" stroke="none">
<path d="M166 2824 c-14 -14 -16 -139 -16 -1233 0 -933 3 -1220 12 -1229 7 -7
44 -12 95 -12 l83 0 0 -85 c0 -73 3 -86 19 -95 13 -7 418 -10 1240 -10 1095 0
1221 2 1235 16 9 8 16 24 16 33 0 37 -23 43 -163 39 l-135 -3 24 41 c13 22 24
48 24 57 0 13 10 17 42 17 84 0 172 67 197 149 6 22 11 109 11 207 0 160 -2
172 -25 223 -53 113 -217 237 -380 287 -87 27 -566 28 -698 1 -154 -31 -312
-97 -431 -181 -32 -22 -86 -60 -120 -84 -35 -24 -94 -53 -139 -67 -138 -44
-193 -81 -247 -166 -18 -28 -39 -76 -46 -107 -17 -72 -18 -234 -2 -250 8 -8
54 -12 140 -12 114 0 129 -2 134 -17 5 -15 31 -75 41 -93 2 -3 -145 -4 -327
-2 l-330 3 0 1159 0 1160 865 0 865 0 2 -591 3 -592 22 -14 c19 -13 24 -12 42
6 21 21 21 27 21 627 0 398 -4 612 -10 625 -9 17 -22 19 -98 19 l-87 0 3 79
c4 73 2 80 -19 95 -21 14 -109 16 -936 16 -815 0 -913 -2 -927 -16z m1794
-124 l0 -50 -798 0 c-607 0 -801 -3 -810 -12 -9 -9 -12 -269 -12 -1110 l0
-1098 -55 0 -55 0 0 1160 0 1160 865 0 865 0 0 -50z m70 -70 c10 -18 8 -20
-25 -20 -37 0 -43 8 -23 28 18 18 36 15 48 -8z m-1620 -40 c-12 -23 -30 -27
-30 -7 0 17 10 27 27 27 11 0 11 -5 3 -20z m2039 -1411 l32 -11 -23 -25 c-21
-23 -23 -23 -36 -6 -41 55 -35 64 27 42z m-696 -24 c-21 -29 -26 -30 -43 -10
-17 20 -4 35 31 35 l30 0 -18 -25z m657 -100 c21 -55 41 -107 44 -115 5 -13
-35 -15 -334 -15 l-340 0 0 112 0 112 28 4 c15 2 148 4 295 3 l268 -1 39 -100z
m-712 -25 l-3 -100 -203 -3 c-111 -1 -202 -1 -202 1 0 1 39 28 88 60 77 50
276 142 310 142 10 0 12 -24 10 -100z m849 64 c57 -32 193 -146 193 -163 0 -3
-43 -6 -96 -5 l-96 2 -39 99 c-21 54 -39 99 -39 101 0 7 19 -1 77 -34z m-1265
-181 c16 -20 -1 -33 -40 -33 -63 0 -69 13 -20 49 38 28 43 30 47 14 2 -10 8
-23 13 -30z m1517 -21 c12 -41 3 -46 -31 -18 -27 21 -27 23 -12 45 19 26 30
19 43 -27z m-1045 22 c21 -20 20 -34 -1 -34 -9 0 -27 -10 -40 -22 l-23 -22
-22 21 -21 22 26 6 c14 4 33 15 43 26 21 23 19 23 38 3z m766 1 c19 -22 -1
-39 -35 -31 -26 7 -27 8 -10 26 22 24 29 25 45 5z m-150 -55 c-6 -11 -14 -20
-19 -20 -4 0 -16 9 -26 20 -18 20 -17 20 19 20 34 0 36 -2 26 -20z m400 -70
c0 -49 -1 -50 -30 -50 -69 0 -100 -36 -100 -119 0 -64 28 -101 76 -101 40 0
43 -9 12 -37 -48 -44 -128 -61 -128 -28 0 25 -36 88 -67 117 -31 30 -91 58
-123 58 -19 0 -20 6 -20 108 l0 107 190 -3 190 -3 0 -49z m-1120 -150 l0 -200
-79 0 c-78 0 -79 0 -84 28 -8 41 -47 93 -95 126 -37 26 -55 31 -116 34 -58 3
-81 0 -113 -16 -50 -26 -107 -89 -123 -136 l-12 -36 -99 0 c-98 0 -100 0 -97
23 2 15 9 21 23 20 102 -11 166 108 96 178 -16 16 -37 29 -45 29 -60 0 48 83
153 118 85 29 89 29 339 31 l252 1 0 -200z m660 92 l0 -108 -35 -12 c-44 -17
-113 -94 -121 -138 l-6 -34 -209 0 -209 0 0 200 0 200 290 0 290 0 0 -108z
m500 -37 c0 -39 -5 -42 -32 -18 -17 15 -17 17 -2 35 25 27 34 22 34 -17z
m-1930 -41 c0 -2 -9 -4 -19 -4 -11 0 -23 -4 -26 -10 -3 -5 -11 -10 -16 -10
-12 0 -3 36 18 69 l15 24 14 -33 c8 -18 14 -34 14 -36z m1890 -24 c0 -25 -4
-30 -25 -30 -20 0 -25 5 -25 23 0 28 7 37 32 37 13 0 18 -8 18 -30z m-402 -12
c19 -19 15 -25 -18 -30 -34 -5 -34 -5 -18 22 15 23 20 24 36 8z m-1479 -7 c21
-13 5 -41 -24 -41 -18 0 -25 5 -25 18 0 31 21 41 49 23z m1918 -57 c-8 -49
-15 -53 -39 -24 l-20 24 22 18 c34 27 43 22 37 -18z m-1977 -9 c10 -13 10 -19
-5 -35 -26 -29 -35 -25 -35 15 0 38 18 47 40 20z m500 -14 c51 -26 80 -74 80
-130 0 -154 -200 -208 -278 -75 -73 124 70 273 198 205z m1120 -4 c70 -47 96
-147 53 -205 -71 -96 -186 -95 -257 1 -28 38 -28 117 1 155 53 72 139 93 203
49z m-970 -141 c-20 -25 -30 -19 -30 21 l0 37 22 -21 c18 -18 19 -24 8 -37z
m228 42 c20 -20 14 -28 -23 -28 -33 0 -34 1 -23 20 15 23 29 25 46 8z m882
-42 c-20 -25 -30 -19 -30 21 l0 37 22 -21 c18 -18 19 -24 8 -37z m-2210 2 l0
-42 -22 21 c-21 22 -21 23 -3 43 10 11 20 20 22 20 1 0 3 -19 3 -42z m693 -11
c-5 -9 -43 11 -43 23 0 5 8 13 18 19 13 8 18 5 23 -12 3 -12 4 -25 2 -30z
m1110 6 c-7 -17 -33 -4 -33 17 0 10 6 20 13 23 13 4 27 -21 20 -40z m-33 -41
c0 -9 9 -34 20 -55 11 -20 20 -38 20 -39 0 -2 -169 -3 -375 -3 -206 0 -375 3
-375 6 0 4 7 12 15 19 8 7 20 30 27 51 l11 39 329 0 c307 0 328 -1 328 -18z
m-1005 -130 c-26 -2 -49 -1 -51 1 -2 2 2 17 8 34 l12 31 39 -31 39 -32 -47 -3z
m1113 0 c-55 -3 -68 2 -50 20 7 7 12 20 12 30 0 16 7 14 44 -14 l43 -33 -49
-3z m-831 28 l11 -30 -56 0 c-31 0 -52 4 -46 8 24 21 67 52 73 52 4 0 12 -13
18 -30z m1110 3 c7 -15 11 -29 8 -32 -5 -5 -97 -2 -102 3 -4 3 68 54 77 55 3
1 11 -11 17 -26z"/>
<path d="M1762 788 c-7 -7 -12 -21 -12 -33 0 -35 20 -45 90 -45 70 0 90 10 90
45 0 35 -20 45 -90 45 -38 0 -71 -5 -78 -12z"/>
<path d="M1184 476 c-26 -26 -34 -42 -34 -70 0 -72 46 -120 114 -120 102 0
149 122 76 196 -23 23 -37 28 -75 28 -40 0 -52 -5 -81 -34z m106 -61 c10 -12
10 -18 0 -30 -27 -32 -71 -8 -56 30 3 8 14 15 24 15 11 0 25 -7 32 -15z"/>
<path d="M2294 476 c-27 -27 -34 -42 -34 -74 0 -75 81 -136 146 -112 67 26 99
90 74 151 -19 45 -56 69 -107 69 -38 0 -50 -5 -79 -34z m110 -61 c9 -24 -4
-45 -29 -45 -29 0 -38 13 -30 40 8 24 50 27 59 5z"/>
<path d="M792 2308 c-14 -14 -15 -37 -4 -56 7 -10 114 -13 521 -13 281 0 516
3 521 6 14 9 12 49 -2 63 -17 17 -1019 17 -1036 0z"/>
<path d="M642 2028 c-15 -15 -15 -41 0 -56 9 -9 173 -12 675 -12 652 0 662 0
673 20 8 14 8 26 0 40 -11 20 -21 20 -673 20 -502 0 -666 -3 -675 -12z"/>
<path d="M637 1753 c-11 -11 -8 -48 5 -61 9 -9 171 -12 669 -12 584 0 659 2
673 16 19 18 19 20 6 45 -10 18 -29 19 -679 19 -367 0 -671 -3 -674 -7z"/>
<path d="M648 1479 c-21 -12 -24 -49 -6 -67 9 -9 171 -12 669 -12 l658 0 15
22 c13 19 14 25 2 43 -13 20 -21 20 -667 22 -432 2 -660 -1 -671 -8z"/>
</g>
</svg>
